<?xml version="1.0" encoding="UTF-8" standalone="no"?>
<!-- Uploaded to: SVG Repo, www.svgrepo.com, Generator: SVG Repo Mixer Tools -->

<svg
   width="800px"
   height="800px"
   viewBox="-4 0 32 32"
   version="1.1"
   id="svg1"
   sodipodi:docname="location.svg"
   inkscape:version="1.4.2 (1:1.4.2+202505120738+ebf0e940d0)"
   xmlns:inkscape="http://www.inkscape.org/namespaces/inkscape"
   xmlns:sodipodi="http://sodipodi.sourceforge.net/DTD/sodipodi-0.dtd"
   xmlns="http://www.w3.org/2000/svg"
   xmlns:svg="http://www.w3.org/2000/svg"
   xmlns:rdf="http://www.w3.org/1999/02/22-rdf-syntax-ns#"
   xmlns:cc="http://creativecommons.org/ns#"
   xmlns:dc="http://purl.org/dc/elements/1.1/"
   xmlns:sketch="http://www.bohemiancoding.com/sketch/ns">
  <sodipodi:namedview
     id="namedview1"
     pagecolor="#ffffff"
     bordercolor="#000000"
     borderopacity="0.25"
     inkscape:showpageshadow="2"
     inkscape:pageopacity="0.0"
     inkscape:pagecheckerboard="0"
     inkscape:deskcolor="#d1d1d1"
     inkscape:zoom="1.13875"
     inkscape:cx="400"
     inkscape:cy="400"
     inkscape:window-width="1920"
     inkscape:window-height="1136"
     inkscape:window-x="0"
     inkscape:window-y="0"
     inkscape:window-maximized="1"
     inkscape:current-layer="Icon-Set" />
  <title
     id="title1">location</title>
  <desc
     id="desc1">Created with Sketch Beta.</desc>
  <defs
     id="defs1" />
  <g
     id="Page-1"
     stroke="none"
     stroke-width="1"
     fill="none"
     fill-rule="evenodd"
     sketch:type="MSPage">
    <g
       id="Icon-Set"
       sketch:type="MSLayerGroup"
       transform="translate(-104.000000, -411.000000)"
       fill="#000000">
      <path
         d="M116,426 C114.343,426 113,424.657 113,423 C113,421.343 114.343,420 116,420 C117.657,420 119,421.343 119,423 C119,424.657 117.657,426 116,426 L116,426 Z M116,418 C113.239,418 111,420.238 111,423 C111,425.762 113.239,428 116,428 C118.761,428 121,425.762 121,423 C121,420.238 118.761,418 116,418 L116,418 Z M116,440 C114.337,440.009 106,427.181 106,423 C106,417.478 110.477,413 116,413 C121.523,413 126,417.478 126,423 C126,427.125 117.637,440.009 116,440 L116,440 Z M116,411 C109.373,411 104,416.373 104,423 C104,428.018 114.005,443.011 116,443 C117.964,443.011 128,427.95 128,423 C128,416.373 122.627,411 116,411 L116,411 Z"
         id="location"
         sketch:type="MSShapeGroup"
         style="fill:#585858;fill-opacity:1" />
    </g>
  </g>
  <metadata
     id="metadata1">
    <rdf:RDF>
      <cc:Work
         rdf:about="">
        <dc:title>location</dc:title>
      </cc:Work>
    </rdf:RDF>
  </metadata>
</svg>
